<?xml version="1.0" encoding="UTF-8"?>
<svg width="120px" height="45px" viewBox="0 0 120 45" version="1.1" xmlns="http://www.w3.org/2000/svg" xmlns:xlink="http://www.w3.org/1999/xlink">
    <!-- Generator: Sketch 46.2 (44496) - http://www.bohemiancoding.com/sketch -->
    <title>logo / white1</title>
    <desc>Created with Sketch.</desc>
    <defs></defs>
    <g id="ELEMENTOS" stroke="none" stroke-width="1" fill="none" fill-rule="evenodd">
        <g id="logo-/-white1">
            <path d="M50.47136,29.5506345 L54.00776,6.45873387 L62.40596,6.45873387 L58.88816,29.5506345 L50.47136,29.5506345 Z M22.90196,29.5506345 L34.63676,6.45873387 L43.85156,6.45873387 L48.34976,29.5506345 L39.46136,29.5506345 L39.17156,26.6547339 L32.93216,26.6547339 L31.77116,29.5506345 L22.90196,29.5506345 Z M35.16296,21.1557156 L38.59076,21.1557156 L38.30096,18.5507907 C38.15636,17.2212187 38.06516,16.2019002 38.04656,15.472955 C38.02916,14.7632876 38.06516,14.0891639 38.11976,13.4704641 L37.99256,13.4704641 C37.84676,14.0891639 37.66616,14.7632876 37.44836,15.472955 C37.19456,16.2019002 36.81416,17.2212187 36.26996,18.5507907 L35.16296,21.1557156 Z M23.75396,15.6193465 C23.10116,14.8910037 22.43036,14.362669 21.68636,13.9981963 C20.96096,13.6337237 20.16296,13.4704641 19.29296,13.4704641 C17.93216,13.4704641 16.78916,13.8891558 15.82796,14.7084661 C14.88536,15.5458495 14.30456,16.6579428 14.08676,18.0598069 C13.88756,19.4074519 14.10476,20.4996649 14.77616,21.3015047 C15.42956,22.120815 16.42676,22.5214337 17.75096,22.5214337 C18.54896,22.5214337 19.38296,22.3388961 20.25356,22.011172 C21.12416,21.6647724 22.10396,21.1189671 23.19236,20.3719489 L21.59636,29.0584458 C20.63456,29.4229185 19.69196,29.715099 18.76676,29.8964316 C17.84156,30.0783667 16.93436,30.1699367 16.02836,30.1699367 C14.90276,30.1699367 13.83296,30.0422207 12.85376,29.7879935 C11.83796,29.531959 10.96736,29.1867643 10.20596,28.7132511 C8.33696,27.5475412 7.03196,26.0541071 6.26936,24.2516243 C5.50796,22.4485391 5.29076,20.3900219 5.65256,18.0598069 C5.92436,16.3290138 6.45056,14.7265391 7.28516,13.2511781 C8.10176,11.7764195 9.15356,10.4829935 10.45916,9.37270751 C11.76536,8.22567302 13.23416,7.36901176 14.81276,6.78645801 C16.40876,6.20390426 18.07736,5.91232617 19.83716,5.91232617 C20.76176,5.91232617 21.66896,6.00389615 22.53956,6.20390426 C23.42756,6.38583935 24.26216,6.67741744 25.06016,7.07803611 L23.75396,15.6193465 Z" id="Fill-5" fill="#FFFFFF"></path>
            <path d="M89.23202,29.5506345 L100.96682,6.45873387 L110.18162,6.45873387 L114.67922,29.5506345 L105.79142,29.5506345 L105.50222,26.6547339 L99.26282,26.6547339 L98.10122,29.5506345 L89.23202,29.5506345 Z M101.49302,21.1557156 L104.92082,21.1557156 L104.61302,18.5507907 C104.48642,17.2212187 104.39462,16.2019002 104.37662,15.472955 C104.35922,14.7632876 104.39462,14.0891639 104.44922,13.4704641 L104.32202,13.4704641 C104.19542,14.0891639 103.99562,14.7632876 103.77782,15.472955 C103.54322,16.2019002 103.14422,17.2212187 102.59942,18.5507907 L101.49302,21.1557156 Z" id="Fill-7" fill="#FFFFFF"></path>
            <path d="M26.1122,33.2472905 L28.9058,39.639116 L28.1078,39.639116 L27.3272,37.7450633 L24.9338,37.7450633 L24.1358,39.639116 L23.3372,39.639116 L26.1122,33.2472905 Z M26.1122,34.8684406 L25.151,37.1269659 L27.0914,37.1269659 L26.1122,34.8684406 Z M18.7124,39.639116 L20.5988,36.3612722 L18.8396,33.4846495 L19.7276,33.4846495 L21.0338,35.83354 L22.2848,33.4846495 L23.12,33.4846495 L21.3968,36.4347692 L23.3372,39.639116 L22.4846,39.639116 L20.9798,36.9811769 L19.5464,39.639116 L18.7124,39.639116 Z M17.1344,39.639116 L17.8592,39.639116 L17.8592,33.4846495 L17.1344,33.4846495 L17.1344,39.639116 Z M13.5608,33.2472905 L16.3544,39.639116 L15.5564,39.639116 L14.7584,37.7450633 L12.3824,37.7450633 L11.5844,39.639116 L10.7864,39.639116 L13.5608,33.2472905 Z M13.5608,34.8684406 L12.5816,37.1269659 L14.5406,37.1269659 L13.5608,34.8684406 Z M10.2422,34.9594081 C9.9512,34.6491546 9.6248,34.4136028 9.299,34.2491383 C8.9726,34.1039517 8.591,34.0310572 8.1926,34.0310572 C7.8842,34.0310572 7.5578,34.0852763 7.2494,34.2316677 C6.9404,34.3587813 6.6872,34.540114 6.4508,34.7780755 C6.215,35.0142296 6.0512,35.2877347 5.9246,35.5793128 C5.8166,35.8883615 5.744,36.2160856 5.744,36.5805582 C5.744,36.8709314 5.7794,37.1269659 5.852,37.3637225 C5.9246,37.6179497 6.0338,37.8366333 6.1616,38.0372438 C6.4148,38.383041 6.7232,38.656546 7.0676,38.8378787 C7.4306,39.0210187 7.8116,39.1300592 8.2286,39.1300592 C8.6276,39.1300592 8.99,39.0384892 9.317,38.8752296 C9.6614,38.7294406 9.9512,38.474611 10.2422,38.1643574 L10.2422,39.1300592 C9.9338,39.3487428 9.6068,39.5120024 9.2624,39.6222479 C8.9,39.730686 8.537,39.8035805 8.1746,39.8035805 C7.8476,39.8035805 7.5392,39.7493615 7.2314,39.6577915 C6.9224,39.5493533 6.6326,39.4216373 6.3608,39.2384974 C5.9246,38.9113757 5.5808,38.5463006 5.345,38.0914629 C5.1092,37.6366252 5,37.1269659 5,36.5980288 C5,36.1245156 5.0726,35.6877509 5.2358,35.3058077 C5.3804,34.905189 5.6168,34.5587895 5.9432,34.2491383 C6.2696,33.9394872 6.6146,33.7208037 6.977,33.5750146 C7.358,33.411755 7.7756,33.3388604 8.2286,33.3388604 C8.5736,33.3388604 8.9186,33.3930795 9.2444,33.5015176 C9.5888,33.6117631 9.9158,33.7750227 10.2422,34.0129842 L10.2422,34.9594081 Z" id="Fill-9" fill="#FFFFFF"></path>
            <path d="M78.73052,33.2472905 L81.50492,39.639116 L80.72492,39.639116 L79.92752,37.7450633 L77.53352,37.7450633 L76.75292,39.639116 L75.95492,39.639116 L78.73052,33.2472905 Z M78.73052,34.8684406 L77.75012,37.1269659 L79.70912,37.1269659 L78.73052,34.8684406 Z M75.91892,34.9594081 C75.62852,34.6491546 75.32072,34.4136028 74.99312,34.2491383 C74.64932,34.1039517 74.28632,34.0310572 73.88732,34.0310572 C73.56092,34.0310572 73.25252,34.0852763 72.94412,34.2316677 C72.63632,34.3587813 72.36452,34.540114 72.14612,34.7780755 C71.90972,35.0142296 71.72912,35.2877347 71.62052,35.5793128 C71.49332,35.8883615 71.43812,36.2160856 71.43812,36.5805582 C71.43812,36.8709314 71.47532,37.1269659 71.54792,37.3637225 C71.62052,37.6179497 71.71052,37.8366333 71.85572,38.0372438 C72.11072,38.383041 72.39992,38.656546 72.76352,38.8378787 C73.12532,39.0210187 73.50692,39.1300592 73.92332,39.1300592 C74.30492,39.1300592 74.66672,39.0384892 75.01172,38.8752296 C75.33812,38.7294406 75.64712,38.474611 75.91892,38.1643574 L75.91892,39.1300592 C75.60992,39.3487428 75.28352,39.5120024 74.93912,39.6222479 C74.59412,39.730686 74.23172,39.8035805 73.85192,39.8035805 C73.54292,39.8035805 73.21652,39.7493615 72.90812,39.6577915 C72.61772,39.5493533 72.32732,39.4216373 72.05492,39.2384974 C71.60192,38.9113757 71.27552,38.5463006 71.03912,38.0914629 C70.80392,37.6366252 70.67732,37.1269659 70.67732,36.5980288 C70.67732,36.1245156 70.74992,35.6877509 70.91252,35.3058077 C71.07632,34.905189 71.31152,34.5587895 71.63912,34.2491383 C71.94692,33.9394872 72.29192,33.7208037 72.67172,33.5750146 C73.05272,33.411755 73.46972,33.3388604 73.92332,33.3388604 C74.26772,33.3388604 74.61272,33.3930795 74.93912,33.5015176 C75.26552,33.6117631 75.59312,33.7750227 75.91892,34.0129842 L75.91892,34.9594081 Z M69.11732,39.639116 L69.84212,39.639116 L69.84212,33.4846495 L69.11732,33.4846495 L69.11732,39.639116 Z M65.16272,39.8764751 L63.25832,35.4515968 L62.49692,39.639116 L61.78892,39.639116 L63.02312,33.2472905 L65.16272,38.3288219 L67.30352,33.2472905 L68.53712,39.639116 L67.82912,39.639116 L67.04972,35.4515968 L65.16272,39.8764751 Z M56.98292,32.8834203 L57.81752,31.4261323 L58.63352,31.4261323 L59.44952,32.8834203 L58.94192,32.8834203 L58.21592,31.9177185 L57.49112,32.8834203 L56.98292,32.8834203 Z M61.49972,36.5805582 C61.49972,37.0167205 61.40852,37.4173391 61.24472,37.8179578 C61.08212,38.2017083 60.84572,38.5463006 60.53792,38.8565542 C60.22952,39.1487347 59.88512,39.3848888 59.46812,39.5493533 C59.06852,39.7120105 58.65152,39.8035805 58.21592,39.8035805 C57.79952,39.8035805 57.36332,39.7120105 56.98292,39.5493533 C56.56532,39.3848888 56.22152,39.1487347 55.91312,38.8565542 C55.58672,38.5463006 55.35032,38.2017083 55.20572,37.8179578 C55.02392,37.4173391 54.95132,37.0167205 54.95132,36.5805582 C54.95132,36.1425886 55.02392,35.723897 55.20572,35.3232783 C55.35032,34.9413351 55.58672,34.5949355 55.91312,34.2858868 C56.22152,33.9943087 56.56532,33.7581546 56.98292,33.5936901 C57.36332,33.4304304 57.79952,33.3575359 58.21592,33.3575359 C58.65152,33.3575359 59.06852,33.4304304 59.48612,33.5936901 C59.88512,33.7581546 60.22952,33.9943087 60.53792,34.2858868 C60.84572,34.5949355 61.08212,34.9413351 61.24472,35.3232783 C61.40852,35.723897 61.49972,36.1245156 61.49972,36.5805582 L61.49972,36.5805582 Z M58.21592,39.1113838 C58.56092,39.1113838 58.86932,39.0384892 59.17712,38.9113757 C59.48612,38.7836596 59.75792,38.6017245 59.99372,38.364968 C60.22952,38.1288138 60.41132,37.8553087 60.53792,37.5450552 C60.66452,37.2360065 60.73712,36.9082824 60.73712,36.5805582 C60.73712,36.2341586 60.66452,35.9064345 60.53792,35.5961809 C60.41132,35.2877347 60.22952,35.0142296 59.99372,34.7780755 C59.75792,34.522041 59.48612,34.3401059 59.17712,34.2316677 C58.88792,34.0852763 58.56092,34.0310572 58.21592,34.0310572 C57.88952,34.0310572 57.56312,34.0852763 57.25532,34.2316677 C56.94632,34.3401059 56.67452,34.522041 56.45732,34.7780755 C56.20292,35.0142296 56.02112,35.2877347 55.89452,35.5961809 C55.76792,35.9064345 55.71332,36.2341586 55.71332,36.5805582 C55.71332,36.9082824 55.76792,37.2360065 55.89452,37.5450552 C56.02112,37.8366333 56.20292,38.1101383 56.45732,38.364968 C56.69252,38.6017245 56.96432,38.7836596 57.27332,38.9113757 C57.56312,39.0384892 57.88952,39.1113838 58.21592,39.1113838 L58.21592,39.1113838 Z M48.96632,39.639116 L48.96632,33.2472905 L53.44652,38.1643574 L53.44652,33.4846495 L54.13532,33.4846495 L54.13532,39.8764751 L49.65512,35.0142296 L49.65512,39.639116 L48.96632,39.639116 Z M48.15032,36.5805582 C48.15032,37.0167205 48.07772,37.4173391 47.91392,37.8179578 C47.75132,38.2017083 47.51492,38.5463006 47.20712,38.8565542 C46.89752,39.1487347 46.53572,39.3848888 46.13672,39.5493533 C45.73772,39.7120105 45.30212,39.8035805 44.88512,39.8035805 C44.45012,39.8035805 44.03252,39.7120105 43.63352,39.5493533 C43.23452,39.3848888 42.87092,39.1487347 42.56372,38.8565542 C42.25532,38.5463006 42.01892,38.2017083 41.85572,37.8179578 C41.69312,37.4173391 41.61992,37.0167205 41.61992,36.5805582 C41.61992,36.1425886 41.69312,35.723897 41.85572,35.3232783 C42.01892,34.9413351 42.25532,34.5949355 42.56372,34.2858868 C42.87092,33.9943087 43.23452,33.7581546 43.63352,33.5936901 C44.03252,33.4304304 44.45012,33.3575359 44.88512,33.3575359 C45.32072,33.3575359 45.73772,33.4304304 46.13672,33.5936901 C46.53572,33.7581546 46.89752,33.9943087 47.20712,34.2858868 C47.51492,34.5949355 47.75132,34.9413351 47.91392,35.3232783 C48.07772,35.723897 48.15032,36.1245156 48.15032,36.5805582 L48.15032,36.5805582 Z M44.88512,39.1113838 C45.21152,39.1113838 45.53792,39.0384892 45.82772,38.9113757 C46.13672,38.7836596 46.40912,38.6017245 46.66292,38.364968 C46.89752,38.1288138 47.08052,37.8553087 47.20712,37.5450552 C47.33372,37.2360065 47.38772,36.9082824 47.38772,36.5805582 C47.38772,36.2341586 47.33372,35.9064345 47.20712,35.5961809 C47.08052,35.2877347 46.89752,35.0142296 46.66292,34.7780755 C46.40912,34.522041 46.15472,34.3401059 45.84632,34.2316677 C45.53792,34.0852763 45.21152,34.0310572 44.88512,34.0310572 C44.54012,34.0310572 44.21432,34.0852763 43.90532,34.2316677 C43.61492,34.3401059 43.34312,34.522041 43.10732,34.7780755 C42.87092,35.0142296 42.69032,35.2877347 42.56372,35.5961809 C42.43652,35.9064345 42.36392,36.2341586 42.36392,36.5805582 C42.36392,36.9082824 42.43652,37.2360065 42.56372,37.5450552 C42.69032,37.8366333 42.87092,38.1101383 43.10732,38.364968 C43.34312,38.6017245 43.63352,38.7836596 43.92392,38.9113757 C44.23172,39.0384892 44.54012,39.1113838 44.88512,39.1113838 L44.88512,39.1113838 Z M41.02172,34.9594081 C40.73072,34.6491546 40.40492,34.4136028 40.07852,34.2491383 C39.75212,34.1039517 39.38912,34.0310572 38.99012,34.0310572 C38.66372,34.0310572 38.33732,34.0852763 38.02952,34.2316677 C37.72052,34.3587813 37.46672,34.540114 37.23092,34.7780755 C36.99512,35.0142296 36.83192,35.2877347 36.70472,35.5793128 C36.59612,35.8883615 36.54212,36.2160856 36.54212,36.5805582 C36.54212,36.8709314 36.57752,37.1269659 36.63212,37.3637225 C36.70472,37.6179497 36.81392,37.8366333 36.95852,38.0372438 C37.19432,38.383041 37.50272,38.656546 37.84712,38.8378787 C38.21072,39.0210187 38.60912,39.1300592 39.00812,39.1300592 C39.40712,39.1300592 39.77072,39.0384892 40.09712,38.8752296 C40.44212,38.7294406 40.74932,38.474611 41.02172,38.1643574 L41.02172,39.1300592 C40.71332,39.3487428 40.38692,39.5120024 40.04252,39.6222479 C39.69812,39.730686 39.33452,39.8035805 38.95412,39.8035805 C38.62832,39.8035805 38.31872,39.7493615 38.01092,39.6577915 C37.70252,39.5493533 37.41272,39.4216373 37.15832,39.2384974 C36.70472,38.9113757 36.36032,38.5463006 36.12452,38.0914629 C35.88872,37.6366252 35.78012,37.1269659 35.78012,36.5980288 C35.78012,36.1245156 35.85212,35.6877509 36.01592,35.3058077 C36.16052,34.905189 36.41492,34.5587895 36.72272,34.2491383 C37.04912,33.9394872 37.39412,33.7208037 37.77512,33.5750146 C38.15612,33.411755 38.55512,33.3388604 39.00812,33.3388604 C39.37112,33.3388604 39.69812,33.3930795 40.04252,33.5015176 C40.36892,33.6117631 40.69532,33.7750227 41.02172,34.0129842 L41.02172,34.9594081 Z M31.97132,39.639116 L31.97132,33.4846495 L35.18132,33.4846495 L35.18132,34.1587732 L32.69612,34.1587732 L32.69612,35.9251099 L35.18132,35.9251099 L35.18132,36.5980288 L32.69612,36.5980288 L32.69612,38.9481241 L35.18132,38.9481241 L35.18132,39.639116 L31.97132,39.639116 Z" id="Fill-11" fill="#FFFFFF"></path>
            <path d="M112.7744,39.639357 L112.7744,33.4848905 L113.4998,33.4848905 L113.4998,38.9296897 L115.8038,38.9296897 L115.8038,39.639357 L112.7744,39.639357 Z M109.5458,33.2475314 L112.3214,39.639357 L111.542,39.639357 L110.7428,37.7453043 L108.3488,37.7453043 L107.5514,39.639357 L106.772,39.639357 L109.5458,33.2475314 Z M109.5458,34.8686815 L108.5672,37.1272069 L110.5262,37.1272069 L109.5458,34.8686815 Z M103.9238,34.1041927 L103.9238,36.1615051 L104.4866,36.1615051 C105.0476,36.1615051 105.4298,36.0886105 105.629,35.9422191 C105.8282,35.7970325 105.9182,35.5422028 105.9182,35.1783327 C105.9182,34.777714 105.8102,34.5048114 105.629,34.3403469 C105.4298,34.1939554 105.0476,34.1041927 104.4866,34.1041927 L103.9238,34.1041927 Z M103.2164,39.639357 L103.2164,33.4848905 L104.6672,33.4848905 C105.0662,33.4848905 105.374,33.5204341 105.5564,33.557785 C105.7556,33.6120041 105.9182,33.6848986 106.0634,33.7939391 C106.2458,33.9397282 106.3898,34.1397363 106.481,34.3758905 C106.589,34.6132495 106.6262,34.8686815 106.6262,35.1596572 C106.6262,35.6693164 106.4996,36.0524645 106.2092,36.3072941 C105.9368,36.5801968 105.5192,36.7079128 104.9762,36.7079128 L104.8484,36.7079128 L107.1878,39.639357 L106.2626,39.639357 L104.0318,36.7079128 L103.9238,36.7079128 L103.9238,39.639357 L103.2164,39.639357 Z M98.9534,39.639357 L98.9534,33.4848905 L102.1826,33.4848905 L102.1826,34.1584118 L99.6788,34.1584118 L99.6788,35.9253509 L102.1826,35.9253509 L102.1826,36.5976673 L99.6788,36.5976673 L99.6788,38.9483651 L102.1826,38.9483651 L102.1826,39.639357 L98.9534,39.639357 Z M92.9324,39.639357 L92.9324,33.4848905 L94.1108,33.4848905 C94.9808,33.4848905 95.5982,33.5391095 95.9426,33.6306795 C96.3062,33.7204422 96.614,33.8668337 96.8864,34.0668418 C97.2308,34.3403469 97.5032,34.6867465 97.6844,35.1054381 C97.8644,35.5235274 97.9376,36.015716 97.9376,36.5621237 C97.9376,37.1085314 97.8644,37.6007201 97.6844,38.0188093 C97.5032,38.437501 97.2308,38.7839006 96.8864,39.0568032 C96.614,39.2574138 96.3062,39.4032028 95.9618,39.4947728 C95.6162,39.5851379 95.0906,39.639357 94.3832,39.639357 L94.1108,39.639357 L92.9324,39.639357 Z M93.6764,38.9483651 L94.1294,38.9483651 C94.8908,38.9483651 95.4164,38.9116166 95.6894,38.8381197 C95.9798,38.7839006 96.2336,38.67486 96.4142,38.5103955 C96.668,38.291712 96.8672,38.0368824 96.9938,37.6910852 C97.1222,37.3633611 97.1954,36.9808154 97.1954,36.5621237 C97.1954,36.1247566 97.1222,35.742211 96.9938,35.4331623 C96.8672,35.1054381 96.668,34.8325355 96.4142,34.6132495 C96.2336,34.4493874 95.9798,34.3403469 95.6894,34.2674523 C95.3816,34.1939554 94.8728,34.1758824 94.1294,34.1758824 L93.6764,34.1758824 L93.6764,38.9483651 Z M88.67,39.639357 L88.67,33.4848905 L91.8974,33.4848905 L91.8974,34.1584118 L89.3954,34.1584118 L89.3954,35.9253509 L91.8974,35.9253509 L91.8974,36.5976673 L89.3954,36.5976673 L89.3954,38.9483651 L91.8974,38.9483651 L91.8974,39.639357 L88.67,39.639357 Z M84.5156,39.639357 L84.5156,33.4848905 L87.7442,33.4848905 L87.7442,34.1584118 L85.2422,34.1584118 L85.2422,35.9253509 L87.7442,35.9253509 L87.7442,36.5976673 L85.2422,36.5976673 L85.2422,39.639357 L84.5156,39.639357 Z" id="Fill-13" fill="#FFFFFF"></path>
            <polygon id="Fill-15" fill="#FFFFFF" points="87.45488 29.8779972 77.17028 29.8779972 71.25728 18.5691047 81.54188 18.5691047"></polygon>
            <polygon id="Fill-17" fill="#ED7902" points="93.00488 6.14896227 82.72028 6.14896227 72.11048 17.4584572 82.39388 17.4584572"></polygon>
            <polygon id="Fill-19" fill="#FFFFFF" points="66.1247 6.14896227 76.4081 6.14896227 82.3211 17.4584572 72.0377 17.4584572"></polygon>
            <polygon id="Fill-21" fill="#ED7902" points="60.55652 29.8779972 70.85792 29.8779972 81.46892 18.5691047 71.18432 18.5691047"></polygon>
        </g>
        <g id="COMPONENTES" transform="translate(-434.000000, -176.000000)"></g>
    </g>
</svg>