<svg id="Camada_1" data-name="Camada 1" xmlns="http://www.w3.org/2000/svg" viewBox="0 0 91 75"><defs><style>.cls-1,.cls-4{fill:#eff5f6;}.cls-1,.cls-3,.cls-4{stroke:#b3c7cb;}.cls-2{fill:#b3c7cb;}.cls-3{fill:#fff;}.cls-4{stroke-miterlimit:10;stroke-width:3px;}.cls-5{fill:#f39200;}</style></defs><path class="cls-1" d="M2.8,2.17H55.7a.36.36,0,0,1,0,.19V66a.32.32,0,0,1,0,.18H2.8a.32.32,0,0,1,0-.18V2.36A.36.36,0,0,1,2.8,2.17Zm52.88,0h0Zm-52.86,64Zm0-64h0Z"/><path class="cls-2" d="M37.64,14.16h-32c-.2,0-.37.25-.37.56v.13c0,.31.17.56.37.56h32c.2,0,.37-.25.37-.56v-.13C38,14.41,37.84,14.16,37.64,14.16Z"/><path class="cls-2" d="M37.64,17.91h-32c-.2,0-.37.25-.37.56v.13c0,.31.17.56.37.56h32c.2,0,.37-.25.37-.56v-.13C38,18.16,37.84,17.91,37.64,17.91Z"/><path class="cls-2" d="M52.14,27.16h-46c-.21,0-.39.25-.39.56v.13c0,.31.18.56.39.56h46c.22,0,.39-.25.39-.56v-.13C52.53,27.41,52.36,27.16,52.14,27.16Z"/><path class="cls-2" d="M52.14,34.66h-46c-.21,0-.39.25-.39.56v.13c0,.31.18.56.39.56h46c.22,0,.39-.25.39-.56v-.13C52.53,34.91,52.36,34.66,52.14,34.66Z"/><path class="cls-2" d="M34.56,38.41H6.16a.51.51,0,0,0-.43.56v.13a.51.51,0,0,0,.43.56h28.4c.23,0,.42-.25.42-.56V39C35,38.66,34.79,38.41,34.56,38.41Z"/><path class="cls-2" d="M52.14,42.66h-46c-.21,0-.39.25-.39.56v.13c0,.31.18.56.39.56h46c.22,0,.39-.25.39-.56v-.13C52.53,42.91,52.36,42.66,52.14,42.66Z"/><path class="cls-2" d="M52.14,46.66h-46c-.21,0-.39.25-.39.56v.13c0,.31.18.56.39.56h46c.22,0,.39-.25.39-.56v-.13C52.53,46.91,52.36,46.66,52.14,46.66Z"/><path class="cls-2" d="M52.14,52.16h-46c-.21,0-.39.25-.39.56v.13c0,.31.18.56.39.56h46c.22,0,.39-.25.39-.56v-.13C52.53,52.41,52.36,52.16,52.14,52.16Z"/><path class="cls-2" d="M34.56,55.91H6.16a.51.51,0,0,0-.43.56v.13a.51.51,0,0,0,.43.56h28.4c.23,0,.42-.25.42-.56v-.13C35,56.16,34.79,55.91,34.56,55.91Z"/><path class="cls-3" d="M16.8,9.17H69.7a.36.36,0,0,1,0,.19V73a.32.32,0,0,1,0,.18H16.8a.32.32,0,0,1-.05-.18V9.36A.36.36,0,0,1,16.8,9.17Zm52.88,0h0Zm-52.86,64Zm0-64h0Z"/><path class="cls-2" d="M51.64,21.16h-32c-.2,0-.37.25-.37.56v.13c0,.31.17.56.37.56h32c.2,0,.37-.25.37-.56v-.13C52,21.41,51.84,21.16,51.64,21.16Z"/><path class="cls-2" d="M65.83,39.91h-46c-.22,0-.39.25-.39.56v.13c0,.31.17.56.39.56h46c.21,0,.39-.25.39-.56v-.13C66.22,40.16,66,39.91,65.83,39.91Z"/><path class="cls-2" d="M51.64,24.91h-32c-.2,0-.37.25-.37.56v.13c0,.31.17.56.37.56h32c.2,0,.37-.25.37-.56v-.13C52,25.16,51.84,24.91,51.64,24.91Z"/><path class="cls-2" d="M66.14,36.16h-46c-.21,0-.39.25-.39.56v.13c0,.31.18.56.39.56h46c.22,0,.39-.25.39-.56v-.13C66.53,36.41,66.36,36.16,66.14,36.16Z"/><path class="cls-2" d="M66.14,43.66h-46c-.21,0-.39.25-.39.56v.13c0,.31.18.56.39.56h46c.22,0,.39-.25.39-.56v-.13C66.53,43.91,66.36,43.66,66.14,43.66Z"/><path class="cls-2" d="M48.56,47.41H20.16a.51.51,0,0,0-.43.56v.13a.51.51,0,0,0,.43.56h28.4c.23,0,.42-.25.42-.56V48C49,47.66,48.79,47.41,48.56,47.41Z"/><path class="cls-2" d="M66.14,52.41h-46c-.21,0-.39.25-.39.56v.13c0,.31.18.56.39.56h46c.22,0,.39-.25.39-.56V53C66.53,52.66,66.36,52.41,66.14,52.41Z"/><path class="cls-2" d="M66.14,56.16h-46c-.21,0-.39.25-.39.56v.13c0,.31.18.56.39.56h46c.22,0,.39-.25.39-.56v-.13C66.53,56.41,66.36,56.16,66.14,56.16Z"/><path class="cls-2" d="M66.14,61.16h-46c-.21,0-.39.25-.39.56v.13c0,.31.18.56.39.56h46c.22,0,.39-.25.39-.56v-.13C66.53,61.41,66.36,61.16,66.14,61.16Z"/><path class="cls-2" d="M48.56,64.91H20.16a.51.51,0,0,0-.43.56v.13a.51.51,0,0,0,.43.56h28.4c.23,0,.42-.25.42-.56v-.13C49,65.16,48.79,64.91,48.56,64.91Z"/><path class="cls-4" d="M52.25,49.46A17.5,17.5,0,1,0,69.75,32,17.51,17.51,0,0,0,52.25,49.46Z"/><path class="cls-5" d="M69.15,58v-2.2a7.47,7.47,0,0,1-3.66-.95l.57-1.46a7,7,0,0,0,3.45.94c1.7,0,2.85-.9,2.85-2.13s-.93-1.94-2.71-2.59c-2.44-.87-4-1.87-4-3.76s1.41-3.18,3.62-3.5v-2.2H70.8v2.11a7,7,0,0,1,3.12.76l-.6,1.44a6.17,6.17,0,0,0-3-.74c-1.84,0-2.54,1-2.54,1.87,0,1.13.89,1.69,3,2.48,2.47.91,3.71,2,3.71,4,0,1.72-1.31,3.33-3.78,3.7V58Z"/></svg>