<svg width="92" height="76" viewBox="0 0 92 76" fill="none" xmlns="http://www.w3.org/2000/svg">
<g opacity="0.5">
<path opacity="0.5" d="M51.1781 8.44824H2.95658C2.69417 8.44824 2.48145 8.69938 2.48145 9.00917V61.4469C2.48145 61.7567 2.69417 62.0078 2.95658 62.0078H51.1781C51.4405 62.0078 51.6532 61.7567 51.6532 61.4469V9.00917C51.6532 8.69938 51.4405 8.44824 51.1781 8.44824Z" fill="url(#paint0_linear_9147:25584)"/>
</g>
<path d="M0.606695 0.948242H59.765L59.7651 0.948241C59.7656 0.948228 59.7675 0.948181 59.7724 0.950647C59.7784 0.953677 59.7902 0.961334 59.8042 0.97799C59.833 1.01231 59.862 1.07482 59.862 1.15932V65.9871C59.862 66.0716 59.833 66.1341 59.8042 66.1685C59.7902 66.1851 59.7784 66.1928 59.7724 66.1958C59.7697 66.1972 59.768 66.1978 59.7668 66.198C59.7657 66.1983 59.7652 66.1982 59.765 66.1982H0.606695C0.606302 66.1982 0.604507 66.1984 0.599322 66.1958C0.593309 66.1928 0.581536 66.1851 0.567554 66.1685C0.538742 66.1341 0.509766 66.0716 0.509766 65.9871V1.15932C0.509766 1.07481 0.538742 1.01231 0.567554 0.977989C0.581536 0.961334 0.593308 0.953677 0.599322 0.950647C0.604215 0.948181 0.606089 0.948228 0.606615 0.948241C0.606646 0.948242 0.606673 0.948242 0.606695 0.948242Z" fill="#EFF5F6" stroke="#B3C7CB"/>
<path d="M15.5414 8.44824H4.94888C4.5602 8.44824 4.24512 8.91502 4.24512 9.49081V23.4057C4.24512 23.9815 4.5602 24.4482 4.94888 24.4482H15.5414C15.93 24.4482 16.2451 23.9815 16.2451 23.4057V9.49081C16.2451 8.91502 15.93 8.44824 15.5414 8.44824Z" fill="#48586C"/>
<path d="M55.3537 14.1982H20.1938C19.9697 14.1982 19.7881 14.4492 19.7881 14.7589V14.8876C19.7881 15.1972 19.9697 15.4482 20.1938 15.4482H55.3537C55.5778 15.4482 55.7594 15.1972 55.7594 14.8876V14.7589C55.7594 14.4492 55.5778 14.1982 55.3537 14.1982Z" fill="#E0E0E0"/>
<path d="M55.3253 17.9482H17.6539C17.4138 17.9482 17.2192 18.1992 17.2192 18.5088V18.6376C17.2192 18.9472 17.4138 19.1982 17.6539 19.1982H55.3253C55.5653 19.1982 55.76 18.9472 55.76 18.6376V18.5088C55.76 18.1992 55.5653 17.9482 55.3253 17.9482Z" fill="#E0E0E0"/>
<path d="M55.3311 27.9482H4.80067C4.56396 27.9482 4.37207 28.1992 4.37207 28.5088V28.6376C4.37207 28.9472 4.56396 29.1982 4.80067 29.1982H55.3311C55.5678 29.1982 55.7597 28.9472 55.7597 28.6376V28.5088C55.7597 28.1992 55.5678 27.9482 55.3311 27.9482Z" fill="#B3C7CB"/>
<path d="M55.3311 31.6982H4.80067C4.56396 31.6982 4.37207 31.9492 4.37207 32.2588V32.3876C4.37207 32.6972 4.56396 32.9482 4.80067 32.9482H55.3311C55.5678 32.9482 55.7597 32.6972 55.7597 32.3876V32.2588C55.7597 31.9492 55.5678 31.6982 55.3311 31.6982Z" fill="#B3C7CB"/>
<path d="M55.3311 36.6982H4.80067C4.56396 36.6982 4.37207 36.9492 4.37207 37.2588V37.3876C4.37207 37.6972 4.56396 37.9482 4.80067 37.9482H55.3311C55.5678 37.9482 55.7597 37.6972 55.7597 37.3876V37.2588C55.7597 36.9492 55.5678 36.6982 55.3311 36.6982Z" fill="#B3C7CB"/>
<path d="M33.4926 40.4483H4.7994C4.56339 40.4483 4.37207 40.6993 4.37207 41.0089V41.1377C4.37207 41.4473 4.56339 41.6983 4.7994 41.6983H33.4926C33.7286 41.6983 33.92 41.4473 33.92 41.1377V41.0089C33.92 40.6993 33.7286 40.4483 33.4926 40.4483Z" fill="#B3C7CB"/>
<path d="M55.3311 45.4482H4.80067C4.56396 45.4482 4.37207 45.6992 4.37207 46.0088V46.1376C4.37207 46.4472 4.56396 46.6982 4.80067 46.6982H55.3311C55.5678 46.6982 55.7597 46.4472 55.7597 46.1376V46.0088C55.7597 45.6992 55.5678 45.4482 55.3311 45.4482Z" fill="#B3C7CB"/>
<path d="M55.3311 49.1983H4.80067C4.56396 49.1983 4.37207 49.4493 4.37207 49.7589V49.8877C4.37207 50.1973 4.56396 50.4483 4.80067 50.4483H55.3311C55.5678 50.4483 55.7597 50.1973 55.7597 49.8877V49.7589C55.7597 49.4493 55.5678 49.1983 55.3311 49.1983Z" fill="#B3C7CB"/>
<path d="M55.3311 52.9482H4.80067C4.56396 52.9482 4.37207 53.1992 4.37207 53.5089V53.6376C4.37207 53.9472 4.56396 54.1982 4.80067 54.1982H55.3311C55.5678 54.1982 55.7597 53.9472 55.7597 53.6376V53.5089C55.7597 53.1992 55.5678 52.9482 55.3311 52.9482Z" fill="#B3C7CB"/>
<path d="M33.4926 56.6982H4.7994C4.56339 56.6982 4.37207 56.9492 4.37207 57.2589V57.3876C4.37207 57.6972 4.56339 57.9482 4.7994 57.9482H33.4926C33.7286 57.9482 33.92 57.6972 33.92 57.3876V57.2589C33.92 56.9492 33.7286 56.6982 33.4926 56.6982Z" fill="#B3C7CB"/>
<path d="M16.4506 5.94971C16.4527 5.94865 16.4539 5.94831 16.4542 5.94824H74.5746C74.5749 5.94831 74.576 5.94865 74.5782 5.94971C74.583 5.95213 74.5936 5.95886 74.6066 5.97431C74.6334 6.00622 74.6611 6.06528 74.6611 6.1459V69.7506C74.6611 69.8312 74.6334 69.8903 74.6066 69.9222C74.5936 69.9376 74.583 69.9443 74.5782 69.9468C74.576 69.9478 74.5749 69.9482 74.5746 69.9482H16.4541C16.4539 69.9482 16.4527 69.9478 16.4506 69.9468C16.4458 69.9443 16.4352 69.9376 16.4222 69.9222C16.3954 69.8903 16.3677 69.8312 16.3677 69.7506V6.1459C16.3677 6.06528 16.3954 6.00622 16.4222 5.97431C16.4352 5.95886 16.4458 5.95213 16.4506 5.94971Z" fill="#EFF5F6" stroke="#B3C7CB"/>
<path d="M31.3993 13.4482H20.8068C20.4181 13.4482 20.103 13.915 20.103 14.4908V28.4057C20.103 28.9815 20.4181 29.4482 20.8068 29.4482H31.3993C31.7879 29.4482 32.103 28.9815 32.103 28.4057V14.4908C32.103 13.915 31.7879 13.4482 31.3993 13.4482Z" fill="#005CA9"/>
<path d="M70.6755 17.9482H35.5155C35.2915 17.9482 35.1099 18.1992 35.1099 18.5088V18.6376C35.1099 18.9472 35.2915 19.1982 35.5155 19.1982H70.6755C70.8996 19.1982 71.0812 18.9472 71.0812 18.6376V18.5088C71.0812 18.1992 70.8996 17.9482 70.6755 17.9482Z" fill="#B3C7CB"/>
<path d="M70.6755 21.6983H35.5155C35.2915 21.6983 35.1099 21.9493 35.1099 22.2589V22.3877C35.1099 22.6973 35.2915 22.9483 35.5155 22.9483H70.6755C70.8996 22.9483 71.0812 22.6973 71.0812 22.3877V22.2589C71.0812 21.9493 70.8996 21.6983 70.6755 21.6983Z" fill="#B3C7CB"/>
<path d="M70.6524 32.9482H20.122C19.8853 32.9482 19.6934 33.1992 19.6934 33.5088V33.6376C19.6934 33.9472 19.8853 34.1982 20.122 34.1982H70.6524C70.8891 34.1982 71.081 33.9472 71.081 33.6376V33.5088C71.081 33.1992 70.8891 32.9482 70.6524 32.9482Z" fill="#B3C7CB"/>
<path d="M70.6524 40.4483H20.122C19.8853 40.4483 19.6934 40.6993 19.6934 41.0089V41.1377C19.6934 41.4473 19.8853 41.6983 20.122 41.6983H70.6524C70.8891 41.6983 71.081 41.4473 71.081 41.1377V41.0089C71.081 40.6993 70.8891 40.4483 70.6524 40.4483Z" fill="#B3C7CB"/>
<path d="M51.3461 44.1982H20.1578C19.9013 44.1982 19.6934 44.4492 19.6934 44.7589V44.8876C19.6934 45.1972 19.9013 45.4482 20.1578 45.4482H51.3461C51.6027 45.4482 51.8106 45.1972 51.8106 44.8876V44.7589C51.8106 44.4492 51.6027 44.1982 51.3461 44.1982Z" fill="#B3C7CB"/>
<path d="M70.6524 49.1982H20.122C19.8853 49.1982 19.6934 49.4492 19.6934 49.7589V49.8876C19.6934 50.1972 19.8853 50.4482 20.122 50.4482H70.6524C70.8891 50.4482 71.081 50.1972 71.081 49.8876V49.7589C71.081 49.4492 70.8891 49.1982 70.6524 49.1982Z" fill="#B3C7CB"/>
<path d="M70.6524 52.9482H20.122C19.8853 52.9482 19.6934 53.1992 19.6934 53.5089V53.6376C19.6934 53.9472 19.8853 54.1982 20.122 54.1982H70.6524C70.8891 54.1982 71.081 53.9472 71.081 53.6376V53.5089C71.081 53.1992 70.8891 52.9482 70.6524 52.9482Z" fill="#B3C7CB"/>
<path d="M70.6524 57.9482H20.122C19.8853 57.9482 19.6934 58.1992 19.6934 58.5089V58.6376C19.6934 58.9472 19.8853 59.1982 20.122 59.1982H70.6524C70.8891 59.1982 71.081 58.9472 71.081 58.6376V58.5089C71.081 58.1992 70.8891 57.9482 70.6524 57.9482Z" fill="#B3C7CB"/>
<path d="M51.3461 61.6982H20.1578C19.9013 61.6982 19.6934 61.9492 19.6934 62.2589V62.3876C19.6934 62.6972 19.9013 62.9482 20.1578 62.9482H51.3461C51.6027 62.9482 51.8106 62.6972 51.8106 62.3876V62.2589C51.8106 61.9492 51.6027 61.6982 51.3461 61.6982Z" fill="#B3C7CB"/>
<path d="M32.309 10.9497C32.3111 10.9486 32.3123 10.9483 32.3125 10.9482H90.433C90.4333 10.9483 90.4344 10.9486 90.4366 10.9497C90.4413 10.9521 90.452 10.9589 90.465 10.9743C90.4918 11.0062 90.5195 11.0653 90.5195 11.1459V74.7506C90.5195 74.8312 90.4918 74.8903 90.465 74.9222C90.452 74.9376 90.4413 74.9443 90.4366 74.9468C90.4344 74.9478 90.4333 74.9482 90.433 74.9482H32.3125C32.3123 74.9482 32.3111 74.9478 32.309 74.9468C32.3042 74.9443 32.2936 74.9376 32.2806 74.9222C32.2538 74.8903 32.2261 74.8312 32.2261 74.7506V11.1459C32.2261 11.0653 32.2538 11.0062 32.2806 10.9743C32.2936 10.9589 32.3042 10.9521 32.309 10.9497Z" fill="white" stroke="#B3C7CB"/>
<path d="M47.306 18.4482H36.7135C36.3249 18.4482 36.0098 18.915 36.0098 19.4908V33.4057C36.0098 33.9815 36.3249 34.4482 36.7135 34.4482H47.306C47.6947 34.4482 48.0098 33.9815 48.0098 33.4057V19.4908C48.0098 18.915 47.6947 18.4482 47.306 18.4482Z" fill="#F39200"/>
<path d="M86.5339 22.9482H51.3739C51.1499 22.9482 50.9683 23.1992 50.9683 23.5088V23.6376C50.9683 23.9472 51.1499 24.1982 51.3739 24.1982H86.5339C86.758 24.1982 86.9396 23.9472 86.9396 23.6376V23.5088C86.9396 23.1992 86.758 22.9482 86.5339 22.9482Z" fill="#B3C7CB"/>
<path d="M86.1626 41.6982H35.6322C35.3955 41.6982 35.2036 41.9492 35.2036 42.2588V42.3876C35.2036 42.6972 35.3955 42.9482 35.6322 42.9482H86.1626C86.3993 42.9482 86.5912 42.6972 86.5912 42.3876V42.2588C86.5912 41.9492 86.3993 41.6982 86.1626 41.6982Z" fill="#B3C7CB"/>
<path d="M86.5339 26.6983H51.3739C51.1499 26.6983 50.9683 26.9493 50.9683 27.2589V27.3877C50.9683 27.6973 51.1499 27.9483 51.3739 27.9483H86.5339C86.758 27.9483 86.9396 27.6973 86.9396 27.3877V27.2589C86.9396 26.9493 86.758 26.6983 86.5339 26.6983Z" fill="#B3C7CB"/>
<path d="M86.5108 37.9482H35.9804C35.7437 37.9482 35.5518 38.1992 35.5518 38.5089V38.6376C35.5518 38.9472 35.7437 39.1982 35.9804 39.1982H86.5108C86.7475 39.1982 86.9394 38.9472 86.9394 38.6376V38.5089C86.9394 38.1992 86.7475 37.9482 86.5108 37.9482Z" fill="#B3C7CB"/>
<path d="M86.5108 45.4483H35.9804C35.7437 45.4483 35.5518 45.6993 35.5518 46.0089V46.1377C35.5518 46.4473 35.7437 46.6983 35.9804 46.6983H86.5108C86.7475 46.6983 86.9394 46.4473 86.9394 46.1377V46.0089C86.9394 45.6993 86.7475 45.4483 86.5108 45.4483Z" fill="#B3C7CB"/>
<path d="M67.2045 49.1982H36.0162C35.7597 49.1982 35.5518 49.4492 35.5518 49.7589V49.8876C35.5518 50.1972 35.7597 50.4482 36.0162 50.4482H67.2045C67.4611 50.4482 67.669 50.1972 67.669 49.8876V49.7589C67.669 49.4492 67.4611 49.1982 67.2045 49.1982Z" fill="#B3C7CB"/>
<path d="M86.5108 54.1982H35.9804C35.7437 54.1982 35.5518 54.4492 35.5518 54.7589V54.8876C35.5518 55.1972 35.7437 55.4482 35.9804 55.4482H86.5108C86.7475 55.4482 86.9394 55.1972 86.9394 54.8876V54.7589C86.9394 54.4492 86.7475 54.1982 86.5108 54.1982Z" fill="#B3C7CB"/>
<path d="M86.5108 57.9482H35.9804C35.7437 57.9482 35.5518 58.1992 35.5518 58.5089V58.6376C35.5518 58.9472 35.7437 59.1982 35.9804 59.1982H86.5108C86.7475 59.1982 86.9394 58.9472 86.9394 58.6376V58.5089C86.9394 58.1992 86.7475 57.9482 86.5108 57.9482Z" fill="#B3C7CB"/>
<path d="M86.5108 62.9482H35.9804C35.7437 62.9482 35.5518 63.1992 35.5518 63.5089V63.6376C35.5518 63.9472 35.7437 64.1982 35.9804 64.1982H86.5108C86.7475 64.1982 86.9394 63.9472 86.9394 63.6376V63.5089C86.9394 63.1992 86.7475 62.9482 86.5108 62.9482Z" fill="#B3C7CB"/>
<path d="M67.2045 66.6982H36.0162C35.7597 66.6982 35.5518 66.9492 35.5518 67.2589V67.3876C35.5518 67.6972 35.7597 67.9482 36.0162 67.9482H67.2045C67.4611 67.9482 67.669 67.6972 67.669 67.3876V67.2589C67.669 66.9492 67.4611 66.6982 67.2045 66.6982Z" fill="#B3C7CB"/>
<defs>
<linearGradient id="paint0_linear_9147:25584" x1="27.0679" y1="62.0078" x2="27.0679" y2="8.44824" gradientUnits="userSpaceOnUse">
<stop stop-color="#808080" stop-opacity="0.25"/>
<stop offset="0.54" stop-color="#808080" stop-opacity="0.12"/>
<stop offset="1" stop-color="#808080" stop-opacity="0.1"/>
</linearGradient>
</defs>
</svg>
