<svg width="126" height="28" viewBox="0 0 126 28" fill="none" xmlns="http://www.w3.org/2000/svg">
<path fill-rule="evenodd" clip-rule="evenodd" d="M120.242 0H109.916L96.25 28H105.442L107.468 24.2703H116.268L116.933 28H126L120.242 0ZM110.566 17.2937L113.914 9.00111L115.173 17.2937H110.566Z" fill="white"/>
<path fill-rule="evenodd" clip-rule="evenodd" d="M75.1772 15.0034H86.3932L94.0775 27.9223H82.8614L75.1772 15.0034Z" fill="white"/>
<path fill-rule="evenodd" clip-rule="evenodd" d="M76.3417 13.0197H87.9332L98.0001 0.155273H86.4086L76.3417 13.0197Z" fill="#F59300"/>
<path fill-rule="evenodd" clip-rule="evenodd" d="M64.75 27.9999H76.3414L86.4083 14.9799H74.8169L64.75 27.9999Z" fill="#F59300"/>
<path fill-rule="evenodd" clip-rule="evenodd" d="M68.9333 0H79.7509L87.1594 13.02H76.3417L68.9333 0Z" fill="white"/>
<path fill-rule="evenodd" clip-rule="evenodd" d="M52.5 28L56.7318 0H66.5L62.2682 28H52.5Z" fill="white"/>
<path fill-rule="evenodd" clip-rule="evenodd" d="M35.6051 0L22.75 28H31.4011L33.308 24.2693H41.5909L42.2167 28H50.75L45.3311 0H35.6051ZM36.2236 17.2985L39.36 9.03477L39.3748 8.99583L40.5602 17.2907H36.2236V17.2985Z" fill="white"/>
<path fill-rule="evenodd" clip-rule="evenodd" d="M22.75 1.54381L21.8431 9.48931C18.3534 5.02419 10.2807 8.10617 9.64107 13.6688C8.83138 20.7273 16.6125 22.3735 20.8391 18.2166L19.9242 26.1846C18.661 26.7634 17.4303 27.207 16.2077 27.5076C14.9931 27.8083 13.7786 27.9737 12.5722 27.9962C11.058 28.0263 9.68155 27.876 8.44272 27.5527C7.20389 27.237 6.08652 26.7334 5.09869 26.0493C3.18781 24.7489 1.80324 23.1026 0.953061 21.0956C0.102884 19.081 -0.180509 16.8109 0.11098 14.2701C0.345791 12.233 0.896383 10.3688 1.77895 8.68499C2.65342 7.00117 3.86796 5.4677 5.40637 4.07705C6.86382 2.75405 8.45082 1.75428 10.1674 1.07023C11.8758 0.401217 13.7462 0.0403997 15.7623 0.00281455C16.9688 -0.0197365 18.1509 0.0930189 19.3007 0.348598C20.4748 0.619211 21.6164 1.01761 22.75 1.54381Z" fill="white"/>
</svg>
