<svg width="90" height="90" viewBox="0 0 90 90" fill="none" xmlns="http://www.w3.org/2000/svg">
<path d="M5.71165 0.6538C5.72232 0.639324 5.73076 0.630343 5.7366 0.625H76.2632C76.2691 0.630343 76.2775 0.639323 76.2882 0.653797C76.33 0.710572 76.3748 0.818904 76.3748 0.965988V89.034C76.3748 89.1811 76.33 89.2894 76.2882 89.3462C76.2775 89.3607 76.2691 89.3697 76.2632 89.375H5.7366C5.73076 89.3697 5.72232 89.3607 5.71165 89.3462C5.6698 89.2894 5.625 89.1811 5.625 89.034V0.965988C5.625 0.818908 5.6698 0.710576 5.71165 0.6538ZM76.2538 0.618046C76.2538 0.617903 76.255 0.618397 76.2571 0.619949C76.2549 0.618964 76.2538 0.618189 76.2538 0.618046ZM76.2539 89.382C76.2535 89.382 76.2545 89.3812 76.2571 89.3801C76.2553 89.3814 76.2542 89.3819 76.2539 89.382ZM5.74603 89.382C5.746 89.3821 5.74488 89.3816 5.74273 89.3801C5.74498 89.381 5.74606 89.3818 5.74603 89.382ZM5.7427 0.619958C5.74487 0.618399 5.746 0.617904 5.74603 0.618047C5.74606 0.618189 5.74497 0.618969 5.7427 0.619958Z" fill="#F7FAFA" stroke="#99BCC2" stroke-width="1.25"/>
<path d="M68.9999 17.6829C68.9999 17.1645 68.8206 16.7442 68.5995 16.7442H44.9999H21.4003C21.1792 16.7442 21 17.1645 21 17.6829V17.8985C21 18.4169 21.1792 18.8372 21.4003 18.8372H68.5995C68.8206 18.8372 68.9999 18.4169 68.9999 17.8985V17.6829Z" fill="#B3C7CB"/>
<path d="M68.5995 43.9534H21.4003C21.1792 43.9534 21 44.3737 21 44.8921V45.1077C21 45.6261 21.1792 46.0464 21.4003 46.0464H68.5995C68.8206 46.0464 68.9999 45.6261 68.9999 45.1077V44.8921C68.9999 44.3737 68.8206 43.9534 68.5995 43.9534Z" fill="#B3C7CB"/>
<path d="M68.5995 31.3953H21.4003C21.1792 31.3953 21 31.8156 21 32.334V32.5496C21 33.0681 21.1792 33.4883 21.4003 33.4883H68.5995C68.8206 33.4883 68.9999 33.0681 68.9999 32.5496V32.334C68.9999 31.8156 68.8206 31.3953 68.5995 31.3953Z" fill="#B3C7CB"/>
<path d="M68.5995 56.5116H21.4003C21.1792 56.5116 21 56.9319 21 57.4503V57.6659C21 58.1844 21.1792 58.6046 21.4003 58.6046H68.5995C68.8206 58.6046 68.9999 58.1844 68.9999 57.6659V57.4503C68.9999 56.9319 68.8206 56.5116 68.5995 56.5116Z" fill="#B3C7CB"/>
<ellipse cx="13" cy="18.8372" rx="2" ry="2.09302" fill="#0071FC"/>
<ellipse cx="13" cy="31.3955" rx="2" ry="2.09302" fill="#0071FC"/>
<ellipse cx="13" cy="43.9535" rx="2" ry="2.09302" fill="#0071FC"/>
<ellipse cx="13" cy="56.5116" rx="2" ry="2.09302" fill="#0071FC"/>
<ellipse cx="69.667" cy="31.0465" rx="14" ry="14.6512" fill="white"/>
<path fill-rule="evenodd" clip-rule="evenodd" d="M53.0005 30.3489C53.0005 21.1061 60.1685 13.6047 69.0005 13.6047C77.8324 13.6047 85.0004 21.1061 85.0004 30.3489C85.0004 39.5917 77.8324 47.093 69.0005 47.093C60.1685 47.093 53.0005 39.5917 53.0005 30.3489ZM57.8009 30.3487L65.8009 38.7208L80.2009 23.6511L77.9449 21.2734L65.8009 33.9822L60.0569 27.9878L57.8009 30.3487Z" fill="#54BBAB"/>
</svg>
