<svg id="Camada_1" data-name="Camada 1" xmlns="http://www.w3.org/2000/svg" xmlns:xlink="http://www.w3.org/1999/xlink" viewBox="0 0 84.71 84.15"><defs><style>.cls-1{fill:url(#Gradiente_sem_nome_5);}.cls-2{fill:#e2a78c;}.cls-3{fill:#005ca9;}.cls-4{fill:#969696;isolation:isolate;opacity:0.1;}.cls-5{fill:#b3c7cb;}.cls-6,.cls-7{fill:#3a4859;}.cls-6{fill-rule:evenodd;}.cls-8{fill:#1ba753;}.cls-9{fill:#fff;}</style><linearGradient id="Gradiente_sem_nome_5" y1="39" x2="74.52" y2="39" gradientUnits="userSpaceOnUse"><stop offset="0" stop-color="#00a6d9"/><stop offset="1" stop-color="#0078b4"/></linearGradient></defs><ellipse class="cls-1" cx="37.26" cy="39" rx="37.26" ry="39"/><path class="cls-2" d="M29.16,45.22H41V55a6.19,6.19,0,0,1-1.74,4.31A5.88,5.88,0,0,1,35.1,61h0a5.84,5.84,0,0,1-4.2-1.78A6.16,6.16,0,0,1,29.16,55Z"/><path class="cls-3" d="M28.79,47.86,27.58,60.5,27,76.5A42.53,42.53,0,0,0,39.24,78c4.9-.16,10.76-2.07,12.26-3L47.43,54.43l-5.94-5.68-2.25,8.54-3.66-3.24Z"/><path class="cls-4" d="M37.08,60.62c-4.47-1.86-10.21-8-8.78-10.84a6.81,6.81,0,0,0,.56-2.3L35,52.85l3.79,3.31,2.87-7.82c.24,1.64.49,2.9.49,2.9s-.86,1.27-1.36,1.34S43.48,63.27,37.08,60.62Z"/><path class="cls-4" d="M29.16,46.5A18.86,18.86,0,0,0,41,46.5V45.22H29.16Z"/><path class="cls-2" d="M34.93,46.57c9,0,16.3-7.64,16.3-17.07s-7.3-17.06-16.3-17.06-16.3,7.64-16.3,17.06S25.93,46.57,34.93,46.57Z"/><path class="cls-2" d="M50.81,35.45c.93,0,1.69-1.58,1.69-3.54s-.76-3.55-1.69-3.55-1.7,1.59-1.7,3.55S49.87,35.45,50.81,35.45Z"/><path class="cls-5" d="M56.73,55.84,41.49,48.75l3.39,8L50.81,78,62.66,67.36Z"/><path class="cls-2" d="M18.63,35.45c.93,0,1.69-1.58,1.69-3.54s-.76-3.55-1.69-3.55-1.7,1.59-1.7,3.55S17.69,35.45,18.63,35.45Z"/><path class="cls-6" d="M27.25,19l3.52,2.77V19.14c2.83,1.48,9.66,4.43,14.4,4.43H46l.29.34h0A13.74,13.74,0,0,1,47.5,25.5c1.25,1.27,3,5.18,3,5.18s2-4.68.3-7.64l-.52-.91c-.08-.12-.14-.24-.21-.36h.18c-.21-.29-.44-.6-.69-.92a51.54,51.54,0,0,0-2.82-4.47,9.29,9.29,0,0,0-.85.53c-3.09-2.79-7.08-5.3-10.89-4.86a21.75,21.75,0,0,0-9.71,3.57c-.24.14-.52.33-.85.57l-.45.29h0A14.07,14.07,0,0,0,20,21a18.06,18.06,0,0,0-1.5,7.5,6.68,6.68,0,0,0,3-1c.21-.21.48-.47.79-.75C24.13,25,27.28,22.08,27.25,19Z"/><path class="cls-7" d="M30.77,21.8l-.3.39.8.64v-1ZM27.25,19l.31-.39L26.73,18v1.05Zm3.52.11L31,18.7l-.74-.38v.82ZM46,23.55l.38-.32L46.17,23h-.25Zm.29.34.39-.32h0Zm0,0-.39.31h0ZM47.5,25.5l-.43.26h0Zm3,5.18-.45.21.47,1,.48-1ZM50.8,23l-.43.25h0Zm-.52-.91-.44.25h0Zm-.21-.36.07-.49-1-.15.52.89Zm.18,0-.07.49,1.16.18-.68-1Zm-.69-.92-.44.25h0Zm-2.82-4.47.41-.28-.26-.38-.4.22Zm-.85.53-.34.37.29.27.33-.23ZM35,12.05l-.06-.5h0Zm-9.7,3.57.26.43h0Zm-.85.57.28.41h0Zm-.45.29-.27-.42-.6.38.56.44Zm0,0,.31.4.51-.39-.51-.4ZM20,21l-.45-.23h0Zm-1.5,7.5H18V29h.5Zm3-1,.26.42h0Zm.79-.75.34.36h0Zm8.79-5.34-3.52-2.77-.62.78,3.53,2.77Zm-.81-2.27V21.8h1V19.14Zm14.9,3.93a25.12,25.12,0,0,1-7.75-1.63A51.17,51.17,0,0,1,31,18.7l-.47.88a51.79,51.79,0,0,0,6.55,2.8,26.31,26.31,0,0,0,8.08,1.69Zm.75,0h-.75v1H46Zm.69.51-.28-.33-.76.65.29.33Zm0,0h0l-.78.63h0Zm1.3,1.67a15.24,15.24,0,0,0-1.32-1.68l-.75.65a15,15,0,0,1,1.21,1.55Zm2.57,5.44.46-.2h0l-.06-.12c-.05-.12-.12-.28-.22-.47-.18-.39-.44-.93-.75-1.5a15.12,15.12,0,0,0-2-3.19l-.72.7A14.91,14.91,0,0,1,49,28.8c.29.56.55,1.09.73,1.47l.21.45.06.13h0Zm-.13-7.39a7,7,0,0,1,.43,4.59,13.54,13.54,0,0,1-.49,1.87c-.07.23-.14.42-.19.55a.35.35,0,0,1-.06.14h0l.46.19.46.2h0a.27.27,0,0,1,.06-.16,3.18,3.18,0,0,0,.21-.6,15.06,15.06,0,0,0,.52-2,7.92,7.92,0,0,0-.55-5.27Zm-.53-.91.53.91.86-.5-.52-.91Zm-.2-.36.2.36.87-.5-.21-.36Zm.68-.71h-.18l-.14,1h.18Zm-1.16-.12c.26.32.48.62.68.9l.82-.58c-.21-.29-.45-.61-.71-.94ZM46.3,16.7a48.71,48.71,0,0,1,2.8,4.44l.87-.5c-1.15-2-1.47-2.48-2.84-4.5Zm-.15.66q.39-.27.81-.51L46.49,16c-.32.19-.62.37-.89.56Zm-11.1-4.8a9.65,9.65,0,0,1,5.42,1.17,23,23,0,0,1,5.06,3.59l.67-.74a23.84,23.84,0,0,0-5.28-3.74,10.8,10.8,0,0,0-6-1.28ZM25.57,16a21.26,21.26,0,0,1,9.5-3.49l-.12-1A22.33,22.33,0,0,0,25,15.2ZM25,15.19c-.24.15-.54.35-.87.59l.58.81c.32-.22.6-.41.82-.54Zm-.76,1.72.46-.31-.56-.83-.44.29Zm.06-.8h0l-.62.79h0Zm-.61,0a15.16,15.16,0,0,0-4.17,4.67l.9.46a13.75,13.75,0,0,1,3.88-4.33Zm-4.17,4.67a16,16,0,0,0-1.41,5.13c-.08.75-.12,1.4-.13,1.87v.73h1v-.68c0-.61.08-1.22.16-1.83a14.47,14.47,0,0,1,1.31-4.78Zm-1,7.72V29h.3a5.86,5.86,0,0,0,.73-.13A7.15,7.15,0,0,0,21.74,28l-.52-.84a6.6,6.6,0,0,1-1.92.79c-.26.06-.48.09-.62.11h-.22Zm3.35-.65.78-.74L22,26.38l-.8.77Zm.78-.74a26.87,26.87,0,0,0,3.24-3.42A7.8,7.8,0,0,0,27.75,19h-1a6.91,6.91,0,0,1-1.67,4.05A27,27,0,0,1,22,26.38Z"/><path class="cls-5" d="M7.67,62.7A37.23,37.23,0,0,0,27.52,76.64l1.64-31c-4.52,2.09-14.73,6.58-16.09,8C12.12,54.61,9.7,58.91,7.67,62.7Z"/><circle class="cls-8" cx="65.13" cy="64.58" r="19.58"/><path class="cls-9" d="M76.69,62.25H67.46V53a2.33,2.33,0,1,0-4.66,0v9.23H53.57a2.33,2.33,0,0,0,0,4.66H62.8v9.23a2.33,2.33,0,1,0,4.66,0V66.91h9.23a2.33,2.33,0,1,0,0-4.66Z"/></svg>