<svg width="90" height="90" viewBox="0 0 90 90" fill="none" xmlns="http://www.w3.org/2000/svg">
<path fill-rule="evenodd" clip-rule="evenodd" d="M53.4154 23.2947C42.1418 24.1695 30.1995 27.6569 20.0562 33.6079C-1.00186 45.9628 -6.33125 64.2582 8.15272 74.4718C13.2606 78.0736 20.1504 80.1894 27.8537 80.8774L27.4233 88.9465C27.3765 89.8226 28.4004 90.3279 29.0692 89.7589L46.8758 74.6089C47.3137 74.2363 47.3491 73.573 46.9532 73.1575L38.5265 64.3132L38.5735 63.8342C38.4298 63.8604 38.2864 63.886 38.1434 63.9111L30.8561 56.2626C30.2514 55.628 29.1794 56.0254 29.1326 56.9016L28.7144 64.7428C23.9715 64.6772 20.0031 63.7414 17.3175 61.8476C8.72508 55.7886 16.5179 42.218 34.7232 31.5368C40.7692 27.9896 47.2032 25.2071 53.4154 23.2947ZM86.5788 31.4487C87.2806 32.0756 87.9193 32.7262 88.4955 33.3977L85.8793 33.9121C86.2029 33.0688 86.4371 32.2459 86.5788 31.4487Z" fill="#F9B000"/>
<path d="M25.4082 31.7224C25.4082 49.2423 39.8675 63.4449 57.7039 63.4449C75.5403 63.4449 89.9995 49.2423 89.9995 31.7225C89.9995 14.2026 75.5403 -9.49991e-07 57.7039 -2.12186e-06C39.8675 -3.29374e-06 25.4082 14.2026 25.4082 31.7224Z" fill="#B3C7CB"/>
<path opacity="0.3" d="M32.0324 30.9091C32.0324 45.2843 43.8964 56.9378 58.5313 56.9378C73.1663 56.9378 85.0303 45.2843 85.0303 30.9091C85.0303 16.5338 73.1663 4.8804 58.5313 4.8804C43.8964 4.8804 32.0324 16.5338 32.0324 30.9091Z" fill="#EFF5F6"/>
<path d="M56.5985 47.7217L56.5985 43.7421C54.0345 43.7028 51.3821 42.9933 49.835 42.0083L50.8958 39.3685C52.7344 40.4495 54.9641 41.0429 57.2616 41.0626C60.4003 41.0626 62.5222 39.4472 62.5222 37.2013C62.5222 35.0341 60.7981 33.6945 57.5268 32.5123C53.0177 30.9363 50.2328 29.1237 50.2328 25.6959C50.2328 22.4254 52.841 19.943 56.908 19.352L56.908 15.3724L59.6487 15.3724L59.6487 19.1945C61.6925 19.2164 63.6859 19.6947 65.3957 20.5735L64.2904 23.1741C62.6506 22.2934 60.7075 21.826 58.7204 21.8344C55.3166 21.8344 54.0345 23.6468 54.0345 25.223C54.0345 27.2719 55.6702 28.2963 59.5162 29.7149C64.0693 31.3698 66.3682 33.4187 66.3682 36.9254C66.3682 40.0381 63.9368 42.9541 59.3835 43.6236L59.3835 47.7217L56.5985 47.7217Z" fill="#40A797"/>
</svg>
