<svg id="Camada_1" data-name="Camada 1" xmlns="http://www.w3.org/2000/svg" viewBox="0 0 120 120"><defs><style>.cls-1{fill:#0028ba;}.cls-2{fill:#ededed;}.cls-3{fill:#eab76c;stroke:#ea9c00;stroke-miterlimit:10;stroke-width:0.25px;opacity:0.3;}.cls-10,.cls-3,.cls-4{fill-rule:evenodd;}.cls-4{fill:#ea9c00;}.cls-5{fill:#ffc84d;}.cls-6{fill:#f7fafa;stroke:#99bcc2;stroke-width:0.5px;}.cls-7{fill:#b3c7cb;}.cls-8{fill:#0071fc;}.cls-9{fill:#fff;}.cls-10{fill:#54bbab;}</style></defs><rect class="cls-1" x="30.45" y="76.19" width="18" height="6.58" rx="3.29" transform="translate(89.12 153) rotate(172.35)"/><path class="cls-2" d="M30.49,76.76h6.07a3.29,3.29,0,0,1,3.29,3.29v0a3.29,3.29,0,0,1-3.29,3.29H30.49a0,0,0,0,1,0,0V76.76A0,0,0,0,1,30.49,76.76Z" transform="matrix(-0.99, 0.13, -0.13, -0.99, 80.67, 154.71)"/><rect class="cls-1" x="22.1" y="71.75" width="18" height="6.58" rx="3.29" transform="translate(94.96 125.24) rotate(150.68)"/><path class="cls-2" d="M22.65,73.87h6.07A3.29,3.29,0,0,1,32,77.16v0a3.29,3.29,0,0,1-3.29,3.29H22.65a0,0,0,0,1,0,0V73.87A0,0,0,0,1,22.65,73.87Z" transform="translate(88.95 131.05) rotate(150.68)"/><rect class="cls-1" x="11.66" y="72.01" width="18" height="6.58" rx="3.29" transform="translate(13.3 -2.44) rotate(9.94)"/><path class="cls-2" d="M20.24,72.76h6.07A3.29,3.29,0,0,1,29.6,76v0a3.29,3.29,0,0,1-3.29,3.29H20.24a0,0,0,0,1,0,0V72.76A0,0,0,0,1,20.24,72.76Z" transform="translate(13.5 -3.16) rotate(9.94)"/><rect class="cls-1" x="9" y="79.47" width="23.44" height="8.56" rx="4.28" transform="translate(74.14 151.49) rotate(155.63)"/><path class="cls-2" d="M9.5,81.79h7.9a4.28,4.28,0,0,1,4.28,4.28v0a4.28,4.28,0,0,1-4.28,4.28H9.5a0,0,0,0,1,0,0V81.79a0,0,0,0,1,0,0Z" transform="translate(65.31 158.05) rotate(155.63)"/><rect class="cls-1" x="4.95" y="76.08" width="23.44" height="8.56" rx="4.28" transform="translate(-6.84 1.73) rotate(-4.92)"/><path class="cls-2" d="M16.19,75.6h7.9a4.28,4.28,0,0,1,4.28,4.28v0a4.28,4.28,0,0,1-4.28,4.28h-7.9a0,0,0,0,1,0,0V75.6A0,0,0,0,1,16.19,75.6Z" transform="translate(-6.77 2.21) rotate(-4.92)"/><rect class="cls-1" x="14.08" y="84.95" width="23.44" height="8.56" rx="4.28" transform="translate(17.64 -3.3) rotate(11.08)"/><path class="cls-2" d="M25.23,86h7.9a4.28,4.28,0,0,1,4.28,4.28v0a4.28,4.28,0,0,1-4.28,4.28h-7.9a0,0,0,0,1,0,0V86A0,0,0,0,1,25.23,86Z" transform="translate(17.95 -4.34) rotate(11.08)"/><rect class="cls-1" x="17.37" y="79.3" width="27.24" height="9.95" rx="4.98" transform="translate(52.81 -2.82) rotate(34.25)"/><path class="cls-2" d="M29.31,83h9.18a5,5,0,0,1,5,5v0a5,5,0,0,1-5,5H29.31a0,0,0,0,1,0,0V83a0,0,0,0,1,0,0Z" transform="translate(55.82 -5.23) rotate(34.25)"/><rect class="cls-1" x="25.3" y="84.5" width="29.29" height="10.7" rx="4.98" transform="translate(116.73 151.28) rotate(152.62)"/><path class="cls-2" d="M26.08,87.74H36.34a5,5,0,0,1,5,5v.75a5,5,0,0,1-5,5H26.08a0,0,0,0,1,0,0V87.74A0,0,0,0,1,26.08,87.74Z" transform="translate(106.43 160.26) rotate(152.62)"/><rect class="cls-1" x="7.56" y="89.18" width="24.89" height="9.09" rx="4.22" transform="translate(22.31 -2.08) rotate(13.43)"/><path class="cls-2" d="M19.35,90.57h8.72a4.22,4.22,0,0,1,4.22,4.22v.65a4.22,4.22,0,0,1-4.22,4.22H19.35a0,0,0,0,1,0,0V90.57a0,0,0,0,1,0,0Z" transform="translate(22.79 -3.4) rotate(13.43)"/><rect class="cls-1" x="57.97" y="88.32" width="18" height="6.58" rx="3.29" transform="translate(-14.53 12.65) rotate(-9.74)"/><path class="cls-2" d="M66.55,87.59h6.07a3.29,3.29,0,0,1,3.29,3.29v0a3.29,3.29,0,0,1-3.29,3.29H66.55a0,0,0,0,1,0,0V87.59A0,0,0,0,1,66.55,87.59Z" transform="translate(-14.34 13.36) rotate(-9.74)"/><rect class="cls-1" x="49.69" y="97.34" width="23.44" height="8.56" rx="4.28" transform="translate(96.08 215.18) rotate(-165.83)"/><path class="cls-2" d="M49.86,96h7.9A4.28,4.28,0,0,1,62,100.24v0a4.28,4.28,0,0,1-4.28,4.28h-7.9a0,0,0,0,1,0,0V96A0,0,0,0,1,49.86,96Z" transform="translate(85.67 211.14) rotate(-165.83)"/><rect class="cls-1" x="71.47" y="99.11" width="29.29" height="10.7" rx="4.98" transform="translate(210.62 157.63) rotate(152.62)"/><path class="cls-2" d="M72.26,102.35H82.51a5,5,0,0,1,5,5v.75a5,5,0,0,1-5,5H72.26a0,0,0,0,1,0,0v-10.7a0,0,0,0,1,0,0Z" transform="translate(200.32 166.61) rotate(152.62)"/><path class="cls-3" d="M53.36,43.84,51,41.5c-5.51-3.35-14.54-5.06-24.46-4.11-8.72.83-16.26,3.53-21,7.09l-1.75.35V90.12h0c0,.22,0,.44,0,.67,1,7.66,10.82,12.68,26.36,11.2,15.07-1.43,23.37-5.73,23.14-13.15h0Z"/><path class="cls-4" d="M56.54,25.74,51,26.17c-5.51-3.94-14.54-5.94-24.46-4.84-8.72,1-16.26,4.16-21,8.35l-5.35.41V40h0c0,.26,0,.52,0,.78,1,9,14.42,14.92,30,13.18,15.07-1.69,26.56-9.93,26.33-18.65h0Z"/><ellipse class="cls-5" cx="28.35" cy="28.15" rx="28.31" ry="16.42" transform="translate(-2.95 3.32) rotate(-6.38)"/><path class="cls-6" d="M65.79,15.07l0,0,50.56,6.87a0,0,0,0,0,0,0,.36.36,0,0,1,0,.23l-8.58,63.13a.32.32,0,0,1-.09.21l0,0L57.16,78.67a0,0,0,0,0,0,0,.39.39,0,0,1,0-.23L65.7,15.29A.35.35,0,0,1,65.79,15.07Zm50.57,6.85Zm-8.65,63.63h0ZM57.17,78.68h0Zm8.65-63.63Z"/><path class="cls-7" d="M109.5,33.44c0-.37,0-.69-.2-.71l-16.92-2.3-16.91-2.3c-.16,0-.33.27-.38.64l0,.15c0,.37,0,.69.19.71l33.84,4.6c.16,0,.33-.26.38-.63Z"/><path class="cls-7" d="M106.65,52.24l-33.83-4.6c-.16,0-.33.26-.38.63l0,.16c0,.37,0,.69.19.71l33.84,4.6c.16,0,.32-.27.38-.64l0-.15C106.9,52.58,106.81,52.26,106.65,52.24Z"/><path class="cls-7" d="M107.87,43.23,74,38.64c-.16,0-.33.26-.38.63l0,.15c0,.38,0,.69.2.72l33.83,4.59c.16,0,.33-.26.38-.63l0-.15C108.12,43.57,108,43.26,107.87,43.23Z"/><path class="cls-7" d="M105.43,61.24l-33.84-4.6c-.15,0-.32.26-.37.63l0,.16c0,.37,0,.69.2.71l33.83,4.6c.16,0,.33-.26.38-.64l0-.15C105.67,61.58,105.59,61.26,105.43,61.24Z"/><ellipse class="cls-8" cx="69.24" cy="28.82" rx="1.51" ry="1.45" transform="translate(31.37 93.55) rotate(-82.26)"/><ellipse class="cls-8" cx="68.02" cy="37.82" rx="1.51" ry="1.45" transform="translate(21.39 100.12) rotate(-82.26)"/><ellipse class="cls-8" cx="66.8" cy="46.82" rx="1.51" ry="1.45" transform="translate(11.41 106.7) rotate(-82.26)"/><ellipse class="cls-8" cx="65.57" cy="55.82" rx="1.51" ry="1.45" transform="translate(1.43 113.28) rotate(-82.26)"/><ellipse class="cls-9" cx="108.67" cy="43.09" rx="10.6" ry="10.13" transform="translate(51.34 144.97) rotate(-82.26)"/><path class="cls-10" d="M96.79,41a11.59,11.59,0,1,1,22.94,3.12A11.59,11.59,0,1,1,96.79,41Zm3.45.47,4.91,6.78,11.79-9.4-1.38-1.92-9.94,7.93L102.08,40Z"/></svg>