<?xml version="1.0" encoding="utf-8"?>
<!-- Generator: Adobe Illustrator 23.1.0, SVG Export Plug-In . SVG Version: 6.00 Build 0)  -->
<svg version="1.1" id="Camada_1" xmlns="http://www.w3.org/2000/svg" xmlns:xlink="http://www.w3.org/1999/xlink" x="0px" y="0px"
	 viewBox="0 0 29.9 21.5" style="enable-background:new 0 0 29.9 21.5;" xml:space="preserve">
<style type="text/css">
	.st0{fill:#FFFFFF;}
</style>
<path class="st0" d="M24.7,20.7H3c-1.4,0-2.5-1.1-2.5-2.4V3.7c0-1.3,1.1-2.4,2.5-2.4h21.7c1.4,0,2.5,1.1,2.5,2.4v14.7
	C27.1,19.7,26,20.7,24.7,20.7z M3,2.7c-0.6,0-1,0.4-1,1v14.7c0,0.5,0.5,1,1,1h21.7c0.6,0,1-0.4,1-1V3.7c0-0.5-0.5-1-1-1H3z"/>
<path class="st0" d="M14,13.6c-0.6,0-1.2-0.2-1.7-0.6l-10-9C1.8,3.5,1.7,2.9,1.9,2.3c0.2-0.6,0.8-1,1.5-1h20.9
	c0.6,0,1.2,0.4,1.5,0.9c0.2,0.6,0.1,1.2-0.4,1.7l-9.7,9C15.2,13.4,14.6,13.6,14,13.6z M3.4,2.7c0,0-0.1,0-0.1,0.1s0,0.1,0,0.2l10,9
	c0.4,0.4,1,0.4,1.4,0l9.7-9c0,0,0.1-0.1,0-0.2c0-0.1-0.1-0.1-0.1-0.1H3.4z"/>
<path class="st0" d="M21.9,10.9l0,0.8h3.5c1.5,0,2.8,1.4,2.8,3c0,1.7-0.2,3-1.8,3v-2.4c0.3,0,0.6-0.3,0.6-0.6c0-0.3-0.2-0.6-0.6-0.6
	l-4.5,0l0,0.8L19.4,13L21.9,10.9z M23.3,8.1L21,10l-2.6,2.1l-1.2,1l1.2,0.9l2.6,1.9l2.2,1.6l0-2.1h1.8v2.4V19h1.3
	c2.2,0,3.1-1.9,3.1-4.3c0-2.3-1.8-4.3-4.1-4.3h-2.2L23.3,8.1z"/>
</svg>
