<?xml version="1.0" encoding="utf-8"?>
<!-- Generator: Adobe Illustrator 23.1.0, SVG Export Plug-In . SVG Version: 6.00 Build 0)  -->
<svg version="1.1" id="Camada_1" xmlns="http://www.w3.org/2000/svg" xmlns:xlink="http://www.w3.org/1999/xlink" x="0px" y="0px"
	 viewBox="0 0 29 20" style="enable-background:new 0 0 29 20;" xml:space="preserve">
<style type="text/css">
	.st0{fill:#00A996;}
	.st1{fill:#FFFFFF;}
</style>
<path class="st0" d="M24.2,20H2.5C1.1,20,0,18.9,0,17.6V3c0-1.3,1.1-2.4,2.5-2.4h21.7c1.4,0,2.5,1.1,2.5,2.4v14.7
	C26.7,18.9,25.6,20,24.2,20z M2.5,2c-0.6,0-1,0.4-1,1v14.7c0,0.5,0.5,1,1,1h21.7c0.6,0,1-0.4,1-1V3c0-0.5-0.5-1-1-1H2.5z"/>
<path class="st0" d="M13.5,12.9c-0.6,0-1.2-0.2-1.7-0.6l-10-9C1.3,2.8,1.2,2.1,1.4,1.6c0.2-0.6,0.8-1,1.5-1h20.9
	c0.6,0,1.2,0.4,1.5,0.9c0.2,0.6,0.1,1.2-0.4,1.7l-9.7,9C14.8,12.7,14.1,12.9,13.5,12.9z M2.9,2c0,0-0.1,0-0.1,0.1s0,0.1,0,0.2l10,9
	c0.4,0.4,1,0.4,1.4,0l9.7-9c0,0,0.1-0.1,0-0.2C23.9,2,23.8,2,23.8,2H2.9z"/>
<path class="st0" d="M24.3,17.6V14l-3.2,0l0,1.4l-4.3-3.1l4.3-3.5l0,1.6h3.8c0.9,0,1.8,0.4,2.4,1.1c0.6,0.7,1,1.6,1,2.5
	c0,2-1.5,3.7-3.4,3.7L24.3,17.6L24.3,17.6z"/>
<path class="st1" d="M20.4,10.2l0,0.8h4.5c1.5,0,2.8,1.4,2.8,3c0,1.7-1.2,3-2.8,3v-2.4c0.3,0,0.6-0.3,0.6-0.6c0-0.3-0.2-0.6-0.6-0.6
	l-4.5,0l0,0.8l-2.6-1.9L20.4,10.2z M21.8,7.4l-2.3,1.9L17,11.3l-1.2,1l1.2,0.9l2.6,1.9l2.2,1.6l0-2.1h1.8V17v1.2h1.3
	c2.2,0,4.1-1.9,4.1-4.3c0-2.3-1.8-4.3-4.1-4.3h-3.2L21.8,7.4z"/>
</svg>
