<svg id="Camada_1" data-name="Camada 1" xmlns="http://www.w3.org/2000/svg" viewBox="0 0 31.91 21.6"><defs><style>.cls-1{fill:#fff;}.cls-2{fill:#00a996;}</style></defs><path class="cls-1" d="M25,20.18H1.72a.91.91,0,0,1-.91-.91V2.19a.9.9,0,0,1,.91-.91H25a.9.9,0,0,1,.9.91V19.26A.91.91,0,0,1,25,20.18Z" transform="translate(-0.09 -0.55)"/><path class="cls-2" d="M24.12,20.9H2.55A2.47,2.47,0,0,1,.09,18.42V3A2.47,2.47,0,0,1,2.55.55H24.12A2.48,2.48,0,0,1,26.59,3V18.42A2.48,2.48,0,0,1,24.12,20.9ZM2.55,2a1,1,0,0,0-1,1V18.42a1,1,0,0,0,1,1H24.12a1,1,0,0,0,1-1V3a1,1,0,0,0-1-1Z" transform="translate(-0.09 -0.55)"/><path class="cls-1" d="M12.3,12.24,2.39,2.79A.87.87,0,0,1,3,1.28H23.75a.86.86,0,0,1,.6,1.48l-9.63,9.47A1.74,1.74,0,0,1,12.3,12.24Z" transform="translate(-0.09 -0.55)"/><path class="cls-2" d="M13.5,13.45a2.42,2.42,0,0,1-1.69-.68L1.89,3.31a1.61,1.61,0,0,1-.38-1.75A1.59,1.59,0,0,1,3,.55H23.75a1.57,1.57,0,0,1,1.46,1,1.59,1.59,0,0,1-.36,1.74l-9.64,9.46A2.37,2.37,0,0,1,13.5,13.45Zm-.7-1.73a1,1,0,0,0,1.42,0l9.63-9.47a.16.16,0,0,0,0-.16A.14.14,0,0,0,23.74,2H3a.14.14,0,0,0-.14.1.14.14,0,0,0,0,.17Z" transform="translate(-0.09 -0.55)"/><path class="cls-2" d="M25.19,18.65l-5.77,0V14.32h5.77l0-2.65,5.29,4.76L25.24,21Z" transform="translate(-0.09 -0.55)"/><path class="cls-1" d="M25.36,11.34l4.9,4.35L25.37,20l0-2.92H19.93V14.17l5.41,0ZM24.19,2V12.73H18.5v5.76h5.75l0,3.66L32,15.79,24.42,9Z" transform="translate(-0.09 -0.55)"/></svg>