<?xml version="1.0" encoding="utf-8"?>
<!-- Generator: Adobe Illustrator 25.0.0, SVG Export Plug-In . SVG Version: 6.00 Build 0)  -->
<svg version="1.1" id="Camada_1" xmlns="http://www.w3.org/2000/svg" xmlns:xlink="http://www.w3.org/1999/xlink" x="0px" y="0px"
	 viewBox="0 0 25.5 28.5" style="enable-background:new 0 0 25.5 28.5;" xml:space="preserve">
<style type="text/css">
	.st0{fill:#0057AE;}
	.st1{fill:#FFFFFF;}
	.st2{fill:#FFFFFF;stroke:#0158AE;}
</style>
<path class="st0" d="M20.7,10.6c0-0.9-0.2-1.4-0.5-1.7l-8.4-7.2c-0.6-0.5-1.5-0.5-2,0L1.5,8.9c-0.3,0.3-0.3,0.8-0.3,1.7v11.7
	c0,0.7,0.6,1.3,1.4,1.3h16.8c0.7,0,1.4-0.6,1.4-1.3L20.7,10.6C20.7,10.6,20.7,10.6,20.7,10.6z"/>
<path class="st1" d="M19.4,24.3H2.6c-1.1,0-1.9-0.8-1.9-1.9V10.6c0-1.1,0-1.8,0.5-2.2l8.2-7.2c0.8-0.7,2-0.7,2.8,0l8.4,7.2
	c0.4,0.4,0.6,1.1,0.7,2l0,0.2v11.7C21.3,23.4,20.4,24.3,19.4,24.3z M10.8,1.9c-0.2,0-0.5,0.1-0.7,0.2L1.9,9.3
	C1.8,9.4,1.8,10,1.8,10.6v11.7c0,0.4,0.4,0.8,0.8,0.8h16.8c0.4,0,0.8-0.4,0.8-0.8l0-11.8c0-0.9-0.2-1.2-0.3-1.3l-8.4-7.2
	C11.2,1.9,11,1.9,10.8,1.9z"/>
<path class="st2" d="M17.2,17.9H4.7c-0.4,0-0.7-0.3-0.7-0.7V4.7C4,4.3,4.3,4,4.7,4h12.6C17.7,4,18,4.3,18,4.7v12.4
	C18,17.5,17.7,17.9,17.2,17.9z"/>
<path class="st0" d="M20.4,9.2L12,17.6c-0.5,0.5-1.4,0.5-1.9,0L1.5,8.9c-0.3,0.3-0.3,0.8-0.3,1.7v11.7c0,0.7,0.6,1.3,1.4,1.3h16.8
	c0.7,0,1.4-0.6,1.4-1.3V10.6C20.7,10.4,20.6,9.3,20.4,9.2z"/>
<path class="st1" d="M19.4,24.3H2.6c-1.1,0-1.9-0.8-1.9-1.9V10.6c0-1.1,0-1.8,0.5-2.2l0.4-0.3l9,9.1c0.3,0.3,0.8,0.3,1.1,0l8.8-8.9
	l0.4,0.4c0.4,0.4,0.4,1.7,0.4,1.9v11.7C21.3,23.4,20.4,24.3,19.4,24.3z M1.8,9.9c0,0.2,0,0.5,0,0.7v11.7c0,0.4,0.4,0.8,0.8,0.8h16.8
	c0.4,0,0.8-0.4,0.8-0.8V10.6c0-0.1,0-0.2,0-0.4L12.4,18c-0.7,0.7-1.9,0.7-2.7,0L1.8,9.9z"/>
<path class="st0" d="M15.5,9.3H6.6v1.1h8.9V9.3z"/>
<path class="st0" d="M15.5,7.1H6.6v1.1h8.9V7.1z"/>
<path class="st0" d="M19,27.6l0-2.2l-2.3,0v-3.3H19l0-2.2h3.3v2.2h2.3v3.3l-2.3,0v2.2H19z"/>
<path class="st1" d="M21.8,20.4v2.2h2.3v2.2l-2.3,0V27h-2.2l0-2.2l-2.3,0v-2.2h2.3l0-2.2H21.8z M22.9,19.3h-1.1h-2.2h-1.1l0,1.1
	l0,1.1h-1.2h-1.1v1.1v2.2v1.1l1.1,0l1.1,0l0,1.1l0,1.1h1.1h2.2h1.1V27v-1.1l1.1,0l1.1,0v-1.1v-2.2v-1.1h-1.1h-1.1v-1.1L22.9,19.3
	L22.9,19.3z"/>
</svg>
