<svg id="Camada_1" data-name="Camada 1" xmlns="http://www.w3.org/2000/svg" viewBox="0 0 29 19.41"><defs><style>.cls-1{fill:#00a996;}.cls-2{fill:#fff;}</style></defs><path class="cls-1" d="M26.07,15.29H21.13V20h4.94Z" transform="translate(0 -0.59)"/><path class="cls-2" d="M25,19.3H1.64a.9.9,0,0,1-.92-.87V2.15a.9.9,0,0,1,.92-.87H25a.89.89,0,0,1,.91.87V18.43A.89.89,0,0,1,25,19.3Z" transform="translate(0 -0.59)"/><path class="cls-1" d="M24.19,20H2.48A2.42,2.42,0,0,1,0,17.63V3A2.43,2.43,0,0,1,2.48.59H24.19A2.43,2.43,0,0,1,26.67,3V17.63A2.42,2.42,0,0,1,24.19,20ZM2.48,2a1,1,0,0,0-1,1V17.63a1,1,0,0,0,1,1H24.19a1,1,0,0,0,1-1V3a1,1,0,0,0-1-1Z" transform="translate(0 -0.59)"/><path class="cls-2" d="M12.29,11.74l-10-9a.83.83,0,0,1,.6-1.44H23.83a.82.82,0,0,1,.6,1.42l-9.7,9A1.83,1.83,0,0,1,12.29,11.74Z" transform="translate(0 -0.59)"/><path class="cls-1" d="M13.5,12.89a2.5,2.5,0,0,1-1.7-.65l-10-9a1.46,1.46,0,0,1-.38-1.67,1.59,1.59,0,0,1,1.48-1h20.9a1.58,1.58,0,0,1,1.47.94,1.46,1.46,0,0,1-.36,1.66l-9.7,9A2.53,2.53,0,0,1,13.5,12.89ZM2.92,2a.14.14,0,0,0-.14.09.12.12,0,0,0,0,.16l10,9a1.07,1.07,0,0,0,1.43,0l9.69-9a.12.12,0,0,0,0-.15A.12.12,0,0,0,23.82,2Z" transform="translate(0 -0.59)"/><path class="cls-1" d="M24.28,17.65V14H21.11l0,1.42-4.27-3.15,4.28-3.53,0,1.59H25a3.27,3.27,0,0,1,2.44,1.1,3.77,3.77,0,0,1,1,2.54,3.54,3.54,0,0,1-3.41,3.66Z" transform="translate(0 -0.59)"/><path class="cls-2" d="M20.45,10.15l0,.82h4.5a2.9,2.9,0,0,1,2.76,3,2.92,2.92,0,0,1-2.76,3V14.63a.59.59,0,0,0,.56-.62.58.58,0,0,0-.56-.6h-4.5v.75l-2.56-1.89Zm1.38-2.78L19.57,9.23,17,11.34l-1.18,1,1.24.91,2.56,1.88,2.17,1.6,0-2.08h1.84v3.63h1.32A4.17,4.17,0,0,0,29,14a4.18,4.18,0,0,0-4.07-4.26H21.77Z" transform="translate(0 -0.59)"/></svg>