<svg fill="none" height="22" viewBox="0 0 14 22" width="14" xmlns="http://www.w3.org/2000/svg">
  <path
    d="M11.4192 5V16.5C11.4192 18.71 9.41592 20.5 6.94255 20.5C4.46918 20.5 2.46587 18.71 2.46587 16.5V4C2.46587 2.62 3.71934 1.5 5.26379 1.5C6.80825 1.5 8.06172 2.62 8.06172 4V14.5C8.06172 15.05 7.55809 15.5 6.94255 15.5C6.32701 15.5 5.82338 15.05 5.82338 14.5V5H4.14462V14.5C4.14462 15.88 5.39809 17 6.94255 17C8.48701 17 9.74048 15.88 9.74048 14.5V4C9.74048 1.79 7.73716 0 5.26379 0C2.79043 0 0.787109 1.79 0.787109 4V16.5C0.787109 19.54 3.54027 22 6.94255 22C10.3448 22 13.098 19.54 13.098 16.5V5H11.4192Z"
    fill="black"/>
</svg>
