<?xml version="1.0" encoding="utf-8"?>
<!-- Generator: Adobe Illustrator 25.0.0, SVG Export Plug-In . SVG Version: 6.00 Build 0)  -->
<svg version="1.1" id="Camada_1" xmlns="http://www.w3.org/2000/svg" xmlns:xlink="http://www.w3.org/1999/xlink" x="0px" y="0px"
	 viewBox="0 0 19.6 16.1" style="enable-background:new 0 0 19.6 16.1;" xml:space="preserve">
<style type="text/css">
	.st0{fill:#FFFFFF;}
	.st1{fill:#005CA9;}
</style>
<g>
	<path class="st0" d="M18.5,15.5H1.2c-0.4,0-0.7-0.3-0.7-0.7V1.4c0-0.4,0.3-0.7,0.7-0.7h17.3c0.4,0,0.7,0.3,0.7,0.7v13.4
		C19.2,15.2,18.9,15.5,18.5,15.5z"/>
	<path class="st1" d="M17.9,16H1.8c-1,0-1.8-0.9-1.8-1.9V2C0,1,0.8,0.1,1.8,0.1h16.1c1,0,1.8,0.9,1.8,1.9v12.1
		C19.7,15.2,18.9,16,17.9,16z M1.8,1.2C1.4,1.2,1,1.6,1,2v12.1c0,0.4,0.3,0.8,0.8,0.8h16.1c0.4,0,0.8-0.4,0.8-0.8V2
		c0-0.4-0.3-0.8-0.8-0.8H1.8z"/>
	<path class="st0" d="M9,9.3L1.6,1.8C1.2,1.4,1.5,0.7,2.1,0.7h15.5c0.6,0,0.9,0.7,0.4,1.2l-7.2,7.4C10.3,9.8,9.5,9.8,9,9.3z"/>
	<path class="st1" d="M9.9,10.2C9.5,10.2,9,10,8.7,9.7L1.3,2.3C0.9,1.9,0.8,1.4,1,0.9c0.2-0.5,0.6-0.8,1.1-0.8h15.5
		c0.5,0,0.9,0.3,1.1,0.8c0.2,0.5,0.1,1-0.3,1.4l-7.2,7.4C10.8,10,10.4,10.2,9.9,10.2z M9.4,8.8c0.3,0.3,0.8,0.3,1.1,0l7.2-7.4
		c0,0,0.1-0.1,0-0.1c0-0.1-0.1-0.1-0.1-0.1H2.1c0,0-0.1,0-0.1,0.1c0,0.1,0,0.1,0,0.1L9.4,8.8z"/>
</g>
</svg>
